<svg xmlns="http://www.w3.org/2000/svg" xmlns:xlink="http://www.w3.org/1999/xlink" preserveAspectRatio="xMidYMid" width="42" height="42" viewBox="0 0 42 42">
  <defs>
    <style>
      .cls-1 {
        fill: #fff;
        fill-rule: evenodd;
      }
    </style>
  </defs>
  <path d="M41.026,36.706 L21.338,41.956 C21.227,41.986 21.114,42.001 21.000,42.001 C20.886,42.001 20.773,41.986 20.662,41.956 L0.974,36.706 C0.400,36.553 -0.000,36.033 -0.000,35.438 L-0.000,1.313 C-0.000,0.906 0.190,0.521 0.513,0.272 C0.836,0.024 1.256,-0.062 1.651,0.046 L21.000,5.205 L40.349,0.046 C40.744,-0.061 41.164,0.025 41.487,0.272 C41.810,0.521 42.000,0.906 42.000,1.313 L42.000,35.438 C42.000,36.033 41.600,36.553 41.026,36.706 ZM19.687,7.571 L2.625,3.022 L2.625,29.180 L19.687,33.730 L19.687,7.571 ZM19.687,36.446 L2.625,31.896 L2.625,34.429 L19.687,38.980 L19.687,36.446 ZM39.375,3.022 L22.312,7.571 L22.312,33.730 L39.375,29.180 L39.375,3.022 ZM39.375,31.896 L22.312,36.446 L22.312,38.980 L39.375,34.429 L39.375,31.896 ZM25.890,13.175 L35.077,10.549 C35.768,10.358 36.500,10.753 36.700,11.452 C36.899,12.148 36.495,12.875 35.798,13.075 L26.610,15.699 C26.490,15.733 26.369,15.749 26.249,15.749 C25.678,15.749 25.153,15.374 24.988,14.797 C24.789,14.101 25.193,13.374 25.890,13.175 ZM25.890,18.426 L35.077,15.801 C35.768,15.611 36.500,16.005 36.700,16.703 C36.899,17.399 36.495,18.126 35.798,18.326 L26.610,20.951 C26.490,20.984 26.369,21.001 26.249,21.001 C25.678,21.001 25.153,20.625 24.988,20.048 C24.789,19.352 25.193,18.626 25.890,18.426 ZM25.890,23.675 L35.077,21.049 C35.768,20.857 36.500,21.253 36.700,21.952 C36.899,22.648 36.495,23.375 35.798,23.574 L26.610,26.200 C26.490,26.233 26.369,26.249 26.249,26.249 C25.678,26.249 25.153,25.874 24.988,25.297 C24.789,24.601 25.193,23.874 25.890,23.675 ZM6.923,10.549 L16.110,13.175 C16.807,13.374 17.211,14.101 17.012,14.797 C16.847,15.374 16.322,15.749 15.751,15.749 C15.631,15.749 15.510,15.733 15.390,15.699 L6.202,13.075 C5.505,12.875 5.101,12.148 5.300,11.452 C5.500,10.753 6.233,10.357 6.923,10.549 ZM6.923,15.801 L16.110,18.426 C16.807,18.626 17.211,19.352 17.012,20.048 C16.847,20.625 16.322,21.001 15.751,21.001 C15.631,21.001 15.510,20.984 15.390,20.951 L6.202,18.326 C5.505,18.126 5.101,17.399 5.300,16.703 C5.500,16.005 6.233,15.610 6.923,15.801 ZM6.923,21.049 L16.110,23.675 C16.807,23.874 17.211,24.601 17.012,25.297 C16.847,25.874 16.322,26.249 15.751,26.249 C15.631,26.249 15.510,26.233 15.390,26.200 L6.202,23.574 C5.505,23.375 5.101,22.648 5.300,21.952 C5.500,21.253 6.233,20.857 6.923,21.049 Z" class="cls-1"/>
</svg>
