<svg xmlns="http://www.w3.org/2000/svg" xmlns:xlink="http://www.w3.org/1999/xlink" preserveAspectRatio="xMidYMid" width="46" height="46" viewBox="0 0 46 46">
  <defs>
    <style>
      .cls-1 {
        fill: #fff;
        fill-rule: evenodd;
      }
    </style>
  </defs>
  <path d="M43.684,11.500 C43.684,11.500 11.772,11.500 11.143,11.500 C10.514,11.500 10.343,10.742 10.343,10.742 L8.846,2.517 C8.492,0.696 7.526,-0.000 5.752,-0.000 L1.440,-0.000 C0.645,-0.000 0.002,0.643 0.002,1.437 C0.002,2.232 0.645,2.875 1.440,2.875 C1.440,2.875 4.764,2.875 5.415,2.875 C6.067,2.875 6.138,3.699 6.138,3.699 L11.280,31.969 L12.877,38.549 C12.036,39.336 11.502,40.448 11.502,41.687 C11.502,44.066 13.436,46.000 15.815,46.000 C17.686,46.000 19.267,44.794 19.862,43.125 L29.017,43.125 C29.613,44.794 31.193,46.000 33.065,46.000 C35.443,46.000 37.377,44.066 37.377,41.687 C37.377,39.310 35.443,37.375 33.065,37.375 C31.193,37.375 29.613,38.581 29.017,40.250 L19.862,40.250 C19.267,38.581 17.686,37.375 15.815,37.375 C15.770,37.375 15.729,37.386 15.685,37.388 L14.940,34.500 L38.815,34.500 C40.836,34.500 41.510,33.534 41.962,31.940 L45.822,15.049 C46.256,13.095 46.002,11.500 43.684,11.500 ZM33.065,40.250 C33.858,40.250 34.502,40.894 34.502,41.687 C34.502,42.481 33.858,43.125 33.065,43.125 C32.271,43.125 31.627,42.481 31.627,41.687 C31.627,40.894 32.271,40.250 33.065,40.250 ZM17.252,41.687 C17.252,42.481 16.608,43.125 15.815,43.125 C15.021,43.125 14.377,42.481 14.377,41.687 C14.377,40.894 15.021,40.250 15.815,40.250 C16.608,40.250 17.252,40.894 17.252,41.687 ZM42.769,15.077 L39.253,30.898 C39.253,30.898 39.174,31.625 38.365,31.625 C37.557,31.625 15.455,31.625 14.759,31.625 C14.297,31.625 14.126,31.298 14.056,31.072 L14.001,30.862 L11.151,15.192 C11.151,15.192 10.828,14.375 11.839,14.375 C12.850,14.375 41.196,14.375 42.094,14.375 C42.992,14.375 42.769,15.077 42.769,15.077 Z" class="cls-1"/>
</svg>
