<svg xmlns="http://www.w3.org/2000/svg" xmlns:xlink="http://www.w3.org/1999/xlink" preserveAspectRatio="xMidYMid" width="40" height="34" viewBox="0 0 40 34">
  <defs>
    <style>
      .cls-1 {
        fill: #fff;
        fill-rule: evenodd;
      }
    </style>
  </defs>
  <path d="M35.000,29.143 L35.000,32.786 C35.000,33.457 34.441,34.000 33.750,34.000 L28.750,34.000 C28.059,34.000 27.500,33.457 27.500,32.786 L27.500,29.143 L12.500,29.143 L12.500,32.786 C12.500,33.457 11.941,34.000 11.250,34.000 L6.250,34.000 C5.559,34.000 5.000,33.457 5.000,32.786 L5.000,29.143 C2.236,29.143 -0.000,26.970 -0.000,24.286 L-0.000,19.429 C-0.000,17.154 1.613,15.262 3.783,14.733 C3.776,14.678 3.750,14.628 3.750,14.572 C3.750,9.532 6.101,0.000 15.000,0.000 L25.000,0.000 C34.779,0.000 36.190,13.871 36.245,14.461 C36.254,14.555 36.228,14.643 36.215,14.733 C38.387,15.262 40.000,17.153 40.000,19.429 L40.000,24.286 C40.000,26.970 37.764,29.143 35.000,29.143 ZM30.000,31.571 L32.500,31.571 L32.500,29.143 L30.000,29.143 L30.000,31.571 ZM7.500,31.571 L10.000,31.571 L10.000,29.143 L7.500,29.143 L7.500,31.571 ZM25.000,2.428 L15.000,2.428 C6.377,2.428 6.251,14.069 6.250,14.572 L33.743,14.572 C33.606,13.386 32.133,2.428 25.000,2.428 ZM37.500,19.429 C37.500,18.088 36.381,17.000 35.000,17.000 L5.000,17.000 C3.619,17.000 2.500,18.088 2.500,19.429 L2.500,24.286 C2.500,25.627 3.619,26.714 5.000,26.714 L35.000,26.714 C36.381,26.714 37.500,25.627 37.500,24.286 L37.500,19.429 ZM32.500,24.286 C31.119,24.286 30.000,23.198 30.000,21.857 C30.000,20.516 31.119,19.429 32.500,19.429 C33.881,19.429 35.000,20.516 35.000,21.857 C35.000,23.198 33.881,24.286 32.500,24.286 ZM26.250,23.072 L13.750,23.072 C13.059,23.072 12.500,22.528 12.500,21.857 C12.500,21.186 13.059,20.643 13.750,20.643 L26.250,20.643 C26.941,20.643 27.500,21.186 27.500,21.857 C27.500,22.528 26.941,23.072 26.250,23.072 ZM7.500,24.286 C6.119,24.286 5.000,23.198 5.000,21.857 C5.000,20.516 6.119,19.429 7.500,19.429 C8.881,19.429 10.000,20.516 10.000,21.857 C10.000,23.198 8.881,24.286 7.500,24.286 Z" class="cls-1"/>
</svg>
