<svg xmlns="http://www.w3.org/2000/svg" xmlns:xlink="http://www.w3.org/1999/xlink" preserveAspectRatio="xMidYMid" width="89" height="47.063" viewBox="0 0 89 47.063">
  <defs>
    <style>
      .cls-1 {
        fill: #fff;
        fill-rule: evenodd;
      }
    </style>
  </defs>
  <path d="M86.999,35.295 C86.141,36.016 84.989,36.269 83.576,36.043 C82.025,35.796 80.999,36.072 80.485,36.285 C79.903,39.585 77.957,42.365 74.767,44.403 C72.103,46.106 69.339,46.818 68.276,47.044 L68.153,47.071 L67.963,47.071 L67.839,47.044 C66.775,46.818 64.013,46.106 61.347,44.403 C57.484,41.934 55.441,38.380 55.441,34.122 L55.441,20.894 C54.331,20.477 51.823,19.072 51.960,14.911 C52.034,12.679 52.936,10.816 54.436,9.800 C55.657,8.974 57.178,8.783 58.607,9.275 C59.218,9.484 59.484,9.243 60.092,8.494 C60.577,7.895 61.180,7.150 62.269,6.944 C64.008,6.613 64.938,7.199 65.617,7.625 C65.994,7.862 66.215,7.992 66.448,7.970 C67.397,7.874 67.860,7.464 68.445,6.945 C69.254,6.231 70.171,5.419 72.433,5.419 C74.312,5.419 74.880,6.507 75.338,7.380 C75.628,7.936 75.879,8.417 76.422,8.640 C77.075,8.910 77.608,8.725 78.280,8.493 C79.330,8.129 80.632,7.675 82.583,9.076 C83.559,9.779 83.899,10.993 83.512,12.410 C83.169,13.673 82.204,15.084 81.157,15.415 L81.023,15.649 C81.023,15.649 80.674,16.284 80.674,17.061 L80.674,19.679 C81.857,19.699 83.748,19.665 84.824,19.646 C85.509,19.633 86.082,19.624 86.412,19.624 C88.058,19.624 89.002,22.487 89.002,27.476 C89.002,30.663 88.759,33.815 86.999,35.295 ZM56.998,34.122 C56.998,42.571 65.965,45.054 68.056,45.517 C70.150,45.054 79.117,42.571 79.117,34.122 L79.117,20.442 C76.837,20.311 74.928,19.744 73.384,19.282 C72.239,18.939 71.250,18.644 70.479,18.644 C69.556,18.644 68.194,19.149 66.876,19.637 C65.505,20.145 64.212,20.623 63.242,20.623 C62.420,20.623 61.988,20.242 61.571,19.873 C60.931,19.308 60.073,18.551 56.998,18.457 L56.998,34.122 ZM56.998,17.061 L56.998,17.536 C60.439,17.641 61.488,18.563 62.193,19.186 C62.569,19.519 62.777,19.701 63.242,19.701 C64.041,19.701 65.315,19.229 66.548,18.774 C67.943,18.256 69.387,17.722 70.479,17.722 C71.388,17.722 72.440,18.036 73.655,18.400 C75.138,18.844 76.968,19.386 79.117,19.517 L79.117,17.061 C79.117,16.686 79.168,16.340 79.237,16.038 L56.865,16.038 C56.942,16.349 56.998,16.702 56.998,17.061 ZM80.971,14.501 C81.533,14.247 82.309,13.275 82.611,12.169 C82.775,11.566 82.919,10.458 82.033,9.821 C80.480,8.707 79.562,9.024 78.592,9.363 C77.867,9.615 77.046,9.899 76.060,9.491 C75.207,9.138 74.837,8.428 74.508,7.803 C74.080,6.988 73.744,6.342 72.433,6.342 C70.528,6.342 69.820,6.969 69.070,7.632 C68.443,8.187 67.794,8.761 66.545,8.887 C65.979,8.944 65.541,8.670 65.116,8.403 C64.507,8.022 63.819,7.589 62.445,7.849 C61.694,7.992 61.271,8.516 60.821,9.070 C60.271,9.747 59.591,10.589 58.300,10.145 C57.136,9.745 55.952,9.892 54.962,10.560 C53.711,11.409 52.957,13.005 52.893,14.942 C52.829,16.859 53.363,18.316 54.479,19.277 C54.815,19.568 55.157,19.766 55.441,19.898 L55.441,17.061 C55.441,16.363 55.076,15.617 55.072,15.609 L54.524,14.503 L55.770,14.501 L80.971,14.501 ZM86.412,20.545 C86.087,20.545 85.519,20.556 84.844,20.568 C82.955,20.603 81.584,20.618 80.674,20.600 L80.674,21.912 C81.511,21.927 82.846,21.903 83.606,21.889 C84.093,21.880 84.503,21.873 84.737,21.873 C86.459,21.873 86.716,25.437 86.716,27.561 C86.716,29.794 86.534,32.220 85.188,33.297 C84.730,33.660 84.175,33.843 83.527,33.843 C83.258,33.843 82.975,33.811 82.674,33.748 L80.674,33.326 L80.674,34.122 C80.674,34.510 80.652,34.887 80.619,35.259 C81.315,35.058 82.350,34.914 83.726,35.132 C84.870,35.316 85.743,35.138 86.393,34.593 C87.869,33.352 88.069,30.300 88.069,27.476 C88.069,22.391 87.077,20.545 86.412,20.545 ZM80.674,22.835 L80.674,32.384 L82.869,32.847 C83.611,33.004 84.177,32.915 84.601,32.579 C85.647,31.742 85.781,29.458 85.781,27.561 C85.781,23.961 85.078,22.795 84.737,22.795 C84.506,22.795 84.102,22.803 83.622,22.811 C82.283,22.835 81.322,22.848 80.674,22.835 ZM66.343,26.550 C65.706,24.581 67.086,22.583 67.884,22.005 C67.922,21.973 67.963,21.949 68.009,21.930 C68.017,21.927 68.024,21.924 68.030,21.922 C68.082,21.902 68.138,21.891 68.195,21.891 L68.247,21.891 C68.292,21.891 68.335,21.898 68.376,21.909 C68.405,21.917 68.433,21.927 68.461,21.942 C68.500,21.959 68.533,21.981 68.563,22.007 C69.363,22.590 70.737,24.585 70.100,26.550 C71.644,25.964 73.001,26.252 73.850,27.305 C74.460,28.061 74.734,29.151 74.533,30.015 C74.444,30.396 74.007,30.602 73.753,30.692 C73.629,30.736 73.492,30.726 73.376,30.665 C72.580,30.246 71.842,30.026 71.243,30.026 C70.415,30.026 69.909,30.442 69.723,31.255 C69.748,31.275 69.770,31.297 69.791,31.323 C69.828,31.369 70.149,31.797 70.149,32.455 C70.149,32.832 70.044,33.106 69.938,33.287 C70.237,34.126 70.691,35.053 71.009,35.282 C71.201,35.419 71.258,35.675 71.141,35.879 C70.543,36.937 68.813,37.086 68.285,37.106 C68.273,37.109 68.260,37.109 68.247,37.109 L68.242,37.109 L68.208,37.109 C68.194,37.109 68.181,37.109 68.166,37.107 C67.642,37.086 65.899,36.932 65.301,35.879 C65.185,35.675 65.242,35.419 65.434,35.282 C65.747,35.056 66.192,34.160 66.489,33.334 C66.377,33.155 66.251,32.866 66.251,32.455 C66.251,31.797 66.572,31.369 66.609,31.323 C66.638,31.287 66.672,31.257 66.709,31.231 C66.520,30.435 66.019,30.026 65.201,30.026 C64.602,30.026 63.863,30.246 63.067,30.665 C62.950,30.726 62.813,30.736 62.690,30.692 C62.437,30.602 62.000,30.396 61.911,30.015 C61.709,29.149 61.984,28.061 62.593,27.305 C63.442,26.252 64.798,25.964 66.343,26.550 ZM66.338,35.673 C66.807,36.035 67.714,36.168 68.203,36.186 L68.208,36.186 L68.242,36.186 C68.247,36.185 68.257,36.186 68.257,36.186 C68.918,36.156 69.693,35.985 70.106,35.672 C69.719,35.184 69.355,34.408 69.094,33.674 L67.349,33.674 C67.088,34.408 66.722,35.186 66.338,35.673 ZM69.215,32.455 C69.215,32.298 69.181,32.163 69.142,32.067 L67.255,32.067 C67.219,32.163 67.186,32.298 67.186,32.455 C67.186,32.586 67.208,32.683 67.233,32.752 L69.166,32.752 C69.193,32.683 69.215,32.585 69.215,32.455 ZM62.806,29.729 C62.815,29.733 62.824,29.740 62.835,29.745 C63.698,29.320 64.494,29.103 65.201,29.103 C66.509,29.103 67.379,29.852 67.648,31.145 L68.797,31.145 C69.064,29.852 69.935,29.103 71.243,29.103 C71.950,29.103 72.745,29.320 73.609,29.745 C73.618,29.740 73.629,29.733 73.638,29.729 C73.724,29.220 73.579,28.449 73.120,27.880 C72.387,26.971 71.153,26.936 69.640,27.787 C69.432,27.904 69.167,27.846 69.028,27.653 C68.835,27.385 68.856,26.989 68.989,26.760 C69.884,25.222 68.830,23.562 68.221,22.940 C67.613,23.562 66.557,25.222 67.455,26.760 C67.588,26.989 67.609,27.386 67.413,27.655 C67.275,27.846 67.013,27.904 66.803,27.787 C65.290,26.937 64.056,26.972 63.325,27.879 C62.865,28.449 62.719,29.220 62.806,29.729 ZM38.190,23.392 C38.769,23.477 39.295,23.571 39.753,23.654 C39.939,23.687 40.115,23.719 40.278,23.748 L40.654,24.305 C40.323,25.723 37.828,27.123 35.618,27.617 L35.660,34.045 C35.688,38.301 33.668,41.868 29.819,44.362 C27.165,46.082 24.406,46.809 23.345,47.042 L23.219,47.071 L23.028,47.071 L22.908,47.046 C21.844,46.825 19.077,46.132 16.402,44.446 C12.520,42.000 10.453,38.457 10.427,34.202 L10.387,27.780 C8.165,27.317 5.637,25.944 5.286,24.526 L5.654,23.964 C5.819,23.934 5.995,23.900 6.180,23.864 C6.659,23.770 7.213,23.664 7.826,23.567 C6.501,23.096 4.905,22.382 3.456,21.336 C0.984,19.558 -0.202,17.379 0.026,15.037 C0.147,13.798 0.592,12.526 1.218,11.633 C1.740,10.888 2.498,10.271 3.166,9.727 C3.307,9.615 3.443,9.503 3.573,9.393 C4.061,8.985 4.564,8.699 5.050,8.423 C5.837,7.974 6.516,7.587 6.988,6.778 L7.560,6.577 C8.057,6.767 8.224,7.101 8.278,7.346 C8.464,8.211 7.527,9.282 6.488,10.312 L6.362,10.436 C5.316,11.496 5.008,12.625 5.449,13.792 C6.104,15.530 8.241,16.954 10.321,17.573 L10.318,17.140 C10.314,16.442 9.942,15.699 9.939,15.691 L9.384,14.588 L10.631,14.578 L36.539,14.417 L35.889,15.569 C35.889,15.569 35.546,16.206 35.552,16.983 L35.553,17.448 C37.656,16.820 39.836,15.348 40.478,13.572 C40.903,12.401 40.582,11.277 39.522,10.230 L39.395,10.106 C38.342,9.089 37.392,8.030 37.569,7.164 C37.619,6.917 37.782,6.582 38.274,6.388 L38.851,6.579 C39.333,7.382 40.017,7.761 40.808,8.200 C41.298,8.469 41.804,8.751 42.297,9.152 C42.430,9.260 42.568,9.369 42.709,9.480 C43.385,10.017 44.150,10.623 44.681,11.363 C45.320,12.249 45.783,13.515 45.918,14.751 C46.175,17.091 45.017,19.283 42.569,21.094 C41.118,22.166 39.516,22.904 38.190,23.392 ZM10.326,18.534 C7.929,17.892 5.380,16.254 4.573,14.113 C4.177,13.061 4.050,11.459 5.691,9.793 L5.826,9.660 C6.653,8.843 7.049,8.322 7.231,7.994 C6.716,8.538 6.109,8.884 5.517,9.221 C5.067,9.477 4.601,9.743 4.177,10.098 C4.042,10.209 3.903,10.323 3.760,10.439 C3.109,10.970 2.435,11.518 1.986,12.157 C1.447,12.927 1.061,14.037 0.955,15.126 C0.505,19.766 6.729,22.487 10.233,23.321 C10.274,23.321 10.315,23.319 10.357,23.317 L10.326,18.534 ZM10.365,24.263 C10.343,24.266 10.321,24.273 10.301,24.273 C10.264,24.273 10.229,24.270 10.194,24.262 C10.179,24.257 10.161,24.253 10.144,24.250 C8.679,24.323 7.407,24.564 6.433,24.753 C7.059,25.556 8.738,26.449 10.380,26.831 L10.365,24.263 ZM11.984,34.193 C12.038,42.642 21.020,45.066 23.116,45.517 C25.208,45.040 34.157,42.503 34.103,34.054 L34.040,24.115 C33.657,24.140 33.263,24.177 32.863,24.236 C32.739,24.253 32.595,24.282 32.441,24.313 C32.492,24.923 32.508,26.756 30.977,27.699 C30.003,28.298 29.213,28.497 28.548,28.497 C27.856,28.497 27.297,28.284 26.800,28.088 C26.906,29.861 27.570,32.564 28.789,36.179 C28.858,36.382 28.878,36.698 28.587,37.099 C28.311,37.479 27.755,37.894 27.061,38.263 C27.160,38.784 27.165,39.264 27.166,39.545 C27.172,40.644 26.751,41.681 25.977,42.462 C25.202,43.245 24.169,43.681 23.065,43.687 C23.054,43.687 23.047,43.687 23.039,43.687 C21.943,43.687 20.914,43.266 20.135,42.497 C19.352,41.726 18.916,40.696 18.910,39.598 C18.906,39.161 18.974,38.735 19.103,38.331 C18.382,37.967 17.803,37.553 17.515,37.167 C17.221,36.770 17.237,36.449 17.302,36.244 C18.474,32.621 19.102,29.916 19.189,28.141 C18.688,28.347 18.121,28.565 17.417,28.566 C16.759,28.566 15.979,28.374 15.020,27.799 C13.478,26.875 13.469,25.045 13.513,24.433 C13.353,24.403 13.206,24.375 13.076,24.359 C12.684,24.307 12.298,24.273 11.921,24.253 L11.984,34.193 ZM30.555,26.864 C31.463,26.245 31.537,25.076 31.517,24.537 C31.055,24.661 30.557,24.806 30.064,24.953 C30.407,25.244 30.630,25.764 30.625,26.350 C30.621,26.530 30.595,26.702 30.555,26.864 ZM29.690,26.264 C29.695,25.854 29.522,25.621 29.454,25.599 C29.396,25.619 29.220,25.849 29.215,26.258 C29.210,26.661 29.377,26.893 29.447,26.921 C29.517,26.893 29.686,26.664 29.690,26.264 ZM28.479,25.435 C28.135,25.539 27.819,25.633 27.562,25.703 C27.341,25.762 27.179,25.899 27.054,26.130 C26.923,26.373 26.841,26.699 26.804,27.101 C26.901,27.137 26.997,27.171 27.095,27.211 C27.594,27.408 28.080,27.599 28.680,27.568 C28.432,27.259 28.277,26.806 28.282,26.313 C28.285,25.990 28.357,25.687 28.479,25.435 ZM20.332,37.884 C20.703,38.028 21.103,38.156 21.512,38.254 C21.500,37.736 21.414,37.300 21.263,36.924 C20.884,37.180 20.567,37.506 20.332,37.884 ZM20.790,36.119 C20.285,35.503 19.565,35.076 18.779,34.638 C18.601,35.239 18.407,35.867 18.193,36.530 C18.223,36.733 18.729,37.126 19.470,37.502 C19.791,36.953 20.239,36.476 20.790,36.119 ZM19.963,38.711 C19.884,38.995 19.842,39.290 19.844,39.592 C19.849,40.446 20.187,41.245 20.797,41.845 C21.398,42.439 22.193,42.765 23.045,42.765 C23.045,42.765 23.052,42.765 23.058,42.765 C23.910,42.760 24.711,42.424 25.310,41.817 C25.909,41.210 26.237,40.406 26.232,39.551 C26.231,39.227 26.212,38.933 26.178,38.671 C25.202,39.068 24.097,39.344 23.122,39.344 L23.120,39.344 C23.101,39.344 23.084,39.340 23.065,39.339 C23.047,39.340 23.028,39.344 23.011,39.344 C23.000,39.344 22.988,39.344 22.977,39.344 C22.015,39.344 20.928,39.086 19.963,38.711 ZM25.949,37.776 C25.730,37.263 25.373,36.964 24.862,36.841 C24.704,37.230 24.613,37.684 24.608,38.230 C25.077,38.112 25.532,37.953 25.949,37.776 ZM26.784,37.367 C27.437,37.003 27.874,36.638 27.899,36.439 C27.679,35.789 27.478,35.172 27.295,34.582 C26.540,35.016 25.845,35.437 25.351,36.028 C26.087,36.287 26.526,36.798 26.784,37.367 ZM17.266,27.637 C17.891,27.674 18.386,27.471 18.895,27.263 C18.989,27.224 19.080,27.188 19.172,27.153 C19.131,26.748 19.045,26.421 18.909,26.178 C18.782,25.949 18.619,25.816 18.395,25.758 C18.153,25.696 17.856,25.611 17.532,25.519 C17.643,25.758 17.716,26.037 17.722,26.343 C17.734,26.869 17.552,27.338 17.266,27.637 ZM16.762,26.337 C16.752,25.928 16.573,25.698 16.504,25.681 C16.449,25.701 16.279,25.937 16.287,26.346 C16.296,26.751 16.471,26.977 16.542,27.001 C16.604,26.979 16.770,26.745 16.762,26.337 ZM15.906,25.048 C15.409,24.906 14.906,24.766 14.438,24.647 C14.425,25.196 14.517,26.388 15.471,26.987 C15.418,26.804 15.385,26.604 15.380,26.390 C15.368,25.829 15.587,25.339 15.906,25.048 ZM11.736,16.108 C11.814,16.420 11.873,16.771 11.876,17.130 L11.879,17.883 C11.888,17.885 11.896,17.887 11.904,17.887 C15.597,18.202 17.737,17.049 18.864,16.064 L11.736,16.108 ZM20.196,16.056 C17.747,19.073 13.013,18.899 11.886,18.811 L11.913,23.328 C12.333,23.351 12.761,23.386 13.200,23.445 C14.134,23.568 15.706,24.027 17.091,24.431 C17.680,24.602 18.236,24.764 18.633,24.867 C19.107,24.991 19.476,25.282 19.727,25.736 C20.426,26.991 20.210,29.562 19.042,33.725 L19.053,33.732 C20.656,34.620 22.465,35.630 22.446,38.413 C22.623,38.429 22.799,38.441 22.973,38.441 C22.985,38.441 22.997,38.443 23.007,38.441 C23.018,38.441 23.027,38.444 23.037,38.444 C23.064,38.440 23.089,38.435 23.116,38.435 C23.299,38.435 23.487,38.419 23.674,38.400 C23.622,35.623 25.416,34.592 27.005,33.682 L27.020,33.674 C25.797,29.534 25.547,26.960 26.231,25.694 C26.476,25.238 26.842,24.942 27.314,24.813 C27.709,24.705 28.261,24.537 28.845,24.359 C30.227,23.937 31.795,23.458 32.729,23.324 C33.174,23.258 33.609,23.217 34.034,23.189 L34.006,18.681 C32.720,18.786 28.180,18.926 25.762,16.021 L20.196,16.056 ZM27.093,16.013 C28.225,16.977 30.357,18.093 34.000,17.755 L33.994,16.993 C33.991,16.618 34.040,16.271 34.109,15.969 L27.093,16.013 ZM35.613,26.669 C37.242,26.262 38.898,25.353 39.511,24.548 C38.557,24.375 37.319,24.156 35.895,24.095 C35.887,24.097 35.876,24.100 35.867,24.101 C35.831,24.110 35.794,24.115 35.756,24.115 C35.701,24.115 35.648,24.104 35.597,24.085 L35.613,26.669 ZM44.989,14.850 C44.870,13.764 44.471,12.660 43.920,11.897 C43.464,11.262 42.784,10.722 42.124,10.200 C41.979,10.085 41.839,9.973 41.703,9.864 C41.274,9.514 40.805,9.256 40.352,9.005 C39.756,8.674 39.146,8.336 38.623,7.799 C38.807,8.125 39.213,8.638 40.048,9.446 L40.185,9.579 C41.849,11.224 41.741,12.828 41.358,13.884 C40.567,16.065 37.977,17.752 35.561,18.402 L35.591,23.160 C35.663,23.163 35.735,23.163 35.804,23.166 C39.295,22.290 45.499,19.492 44.989,14.850 ZM31.198,7.215 L31.189,7.215 C31.176,7.215 31.160,7.210 31.144,7.210 L29.678,11.353 C29.638,11.462 29.559,11.545 29.464,11.597 C29.384,11.656 29.289,11.689 29.190,11.689 C29.128,11.689 29.064,11.677 29.004,11.650 C28.947,11.627 23.500,9.330 17.142,11.569 C17.091,11.632 17.022,11.682 16.940,11.712 C16.889,11.731 16.834,11.739 16.780,11.739 C16.590,11.739 16.411,11.624 16.341,11.436 L14.821,7.311 C14.803,7.312 14.787,7.316 14.767,7.317 L14.762,7.317 C14.145,7.317 13.645,6.823 13.640,6.217 C13.638,5.922 13.752,5.643 13.963,5.433 C14.174,5.223 14.455,5.105 14.755,5.105 C15.375,5.105 15.879,5.595 15.883,6.203 C15.884,6.360 15.850,6.508 15.792,6.642 L18.083,7.965 L18.669,6.153 C18.262,5.987 17.970,5.595 17.968,5.133 C17.963,4.524 18.463,4.026 19.081,4.021 C19.702,4.021 20.205,4.513 20.208,5.121 C20.209,5.339 20.146,5.548 20.030,5.727 L21.345,6.760 L22.427,3.211 C21.754,3.002 21.258,2.389 21.254,1.658 C21.251,1.218 21.421,0.803 21.734,0.492 C22.047,0.179 22.465,0.004 22.910,0.002 C23.833,0.002 24.580,0.736 24.587,1.637 C24.589,2.076 24.419,2.490 24.105,2.803 C23.927,2.980 23.713,3.107 23.482,3.190 L24.615,6.740 L25.918,5.689 C25.800,5.516 25.731,5.309 25.730,5.086 C25.728,4.792 25.842,4.512 26.051,4.301 C26.263,4.091 26.543,3.975 26.843,3.972 C27.464,3.972 27.966,4.466 27.972,5.072 C27.972,5.367 27.857,5.645 27.647,5.857 C27.542,5.963 27.419,6.044 27.284,6.099 L27.893,7.905 L30.165,6.553 C30.106,6.419 30.071,6.270 30.071,6.114 C30.068,5.820 30.183,5.540 30.393,5.330 C30.604,5.120 30.885,5.003 31.184,5.002 C31.804,5.002 32.307,5.494 32.311,6.101 C32.314,6.396 32.198,6.674 31.989,6.886 C31.777,7.095 31.497,7.212 31.198,7.215 ZM14.762,6.027 C14.693,6.027 14.649,6.060 14.628,6.081 C14.609,6.101 14.575,6.145 14.575,6.210 C14.577,6.313 14.659,6.394 14.762,6.394 C14.865,6.393 14.948,6.310 14.948,6.208 C14.947,6.108 14.865,6.027 14.762,6.027 ZM19.088,4.943 C18.985,4.944 18.901,5.027 18.901,5.129 C18.902,5.229 18.985,5.312 19.088,5.312 L19.088,5.325 L19.090,5.325 L19.090,5.312 C19.157,5.311 19.200,5.277 19.222,5.257 C19.240,5.237 19.275,5.192 19.275,5.126 C19.274,5.025 19.191,4.943 19.088,4.943 ZM23.653,1.643 C23.649,1.247 23.321,0.924 22.921,0.924 C22.719,0.927 22.537,1.002 22.399,1.140 C22.261,1.277 22.188,1.458 22.188,1.652 C22.191,2.049 22.517,2.370 22.921,2.370 L22.921,2.641 L22.921,2.641 L22.924,2.370 C23.120,2.368 23.304,2.293 23.440,2.156 C23.578,2.017 23.654,1.835 23.653,1.643 ZM26.850,4.895 C26.782,4.896 26.738,4.930 26.718,4.949 C26.696,4.970 26.664,5.014 26.664,5.081 C26.665,5.155 26.709,5.219 26.775,5.247 C26.779,5.248 26.781,5.247 26.782,5.249 C26.785,5.250 26.789,5.251 26.789,5.251 C26.807,5.258 26.828,5.263 26.850,5.263 L26.850,5.277 L26.850,5.277 L26.850,5.263 C26.918,5.263 26.963,5.229 26.983,5.208 C27.003,5.188 27.036,5.144 27.036,5.078 C27.036,4.977 26.953,4.895 26.850,4.895 ZM27.874,8.992 C27.754,9.064 27.607,9.077 27.473,9.029 C27.340,8.980 27.237,8.875 27.190,8.742 L26.423,6.471 L24.673,7.885 C24.553,7.982 24.392,8.013 24.243,7.969 C24.095,7.926 23.978,7.812 23.930,7.667 L22.966,4.641 L22.040,7.679 C21.995,7.824 21.880,7.939 21.731,7.985 C21.585,8.030 21.422,8.000 21.301,7.905 L19.533,6.514 L18.793,8.796 C18.752,8.928 18.648,9.035 18.516,9.085 C18.384,9.135 18.234,9.123 18.113,9.053 L16.010,7.836 L17.039,10.627 C22.683,8.713 27.495,10.116 28.942,10.637 L29.964,7.749 L27.874,8.992 ZM31.189,5.924 C31.123,5.925 31.077,5.959 31.059,5.978 C31.038,5.998 31.004,6.042 31.004,6.109 C31.004,6.210 31.088,6.291 31.189,6.291 L31.189,6.407 L31.192,6.408 L31.192,6.291 C31.260,6.291 31.304,6.258 31.323,6.238 C31.343,6.217 31.378,6.172 31.377,6.107 C31.377,6.004 31.293,5.924 31.189,5.924 ZM30.458,4.941 C30.280,4.941 30.110,4.840 30.032,4.673 C29.990,4.587 28.949,2.517 25.229,2.481 C24.971,2.479 24.763,2.270 24.766,2.016 C24.769,1.763 24.978,1.558 25.232,1.558 L25.238,1.558 C29.583,1.601 30.830,4.177 30.882,4.287 C30.989,4.518 30.886,4.792 30.651,4.898 C30.589,4.927 30.523,4.941 30.458,4.941 ZM20.677,2.510 C16.957,2.591 15.941,4.674 15.900,4.764 C15.821,4.932 15.651,5.032 15.474,5.032 C15.409,5.032 15.345,5.019 15.281,4.992 C15.047,4.887 14.942,4.617 15.047,4.386 C15.097,4.276 16.311,1.683 20.656,1.587 C20.928,1.585 21.127,1.785 21.133,2.039 C21.139,2.293 20.935,2.505 20.677,2.510 Z" class="cls-1"/>
</svg>
