<svg xmlns="http://www.w3.org/2000/svg" xmlns:xlink="http://www.w3.org/1999/xlink" preserveAspectRatio="xMidYMid" width="73.812" height="14.563" viewBox="0 0 73.812 14.563">
  <defs>
    <style>
      .cls-1 {
        fill: #fff;
        fill-rule: evenodd;
      }
    </style>
  </defs>
  <path d="M73.549,14.290 C72.263,14.290 70.979,14.290 69.695,14.291 C69.539,14.291 69.432,14.262 69.429,14.077 C69.425,13.901 69.466,13.816 69.673,13.786 C70.295,13.703 70.557,13.295 70.634,12.733 C70.829,11.302 70.828,9.862 70.723,8.429 C70.636,7.218 69.408,6.534 68.189,7.012 C67.084,7.444 66.428,8.275 66.353,9.425 C66.283,10.512 66.345,11.607 66.528,12.687 C66.621,13.242 66.873,13.702 67.525,13.785 C67.739,13.812 67.761,13.909 67.764,14.076 C67.770,14.308 67.613,14.290 67.456,14.290 C66.206,14.290 64.954,14.290 63.705,14.290 C63.567,14.290 63.420,14.305 63.429,14.099 C63.436,13.953 63.398,13.814 63.638,13.786 C64.286,13.711 64.587,13.279 64.647,12.708 C64.783,11.391 64.787,10.068 64.717,8.746 C64.671,7.901 64.330,7.244 63.428,6.986 C62.535,6.730 61.497,7.047 60.932,7.744 C60.568,8.194 60.317,8.695 60.328,9.284 C60.347,10.486 60.236,11.692 60.516,12.886 C60.635,13.383 60.893,13.691 61.406,13.777 C61.603,13.810 61.710,13.851 61.703,14.074 C61.693,14.347 61.500,14.290 61.343,14.290 C60.127,14.293 58.910,14.295 57.693,14.289 C57.559,14.287 57.360,14.358 57.349,14.115 C57.344,13.973 57.305,13.820 57.546,13.793 C58.173,13.719 58.446,13.309 58.531,12.754 C58.771,11.160 58.795,9.566 58.525,7.972 C58.423,7.369 58.054,7.014 57.465,6.824 C57.346,6.786 57.102,6.852 57.133,6.560 C57.160,6.306 57.292,6.218 57.512,6.182 C58.253,6.060 58.989,5.922 59.734,5.823 C60.054,5.781 60.380,5.779 60.277,6.293 C60.190,6.722 60.211,7.169 60.179,7.730 C60.979,6.550 61.960,5.843 63.381,5.846 C64.792,5.849 65.796,6.435 66.359,7.734 C66.965,6.837 67.699,6.144 68.795,5.924 C69.529,5.776 70.263,5.800 70.956,6.094 C71.925,6.505 72.331,7.291 72.373,8.268 C72.432,9.604 72.301,10.946 72.477,12.280 C72.571,12.987 72.696,13.684 73.630,13.794 C73.843,13.820 73.798,13.957 73.808,14.083 C73.826,14.277 73.698,14.291 73.549,14.290 ZM55.930,14.364 C55.688,14.435 55.426,14.474 55.173,14.478 C54.160,14.494 53.299,14.150 53.120,12.983 C53.097,12.838 53.129,12.590 52.964,12.548 C52.742,12.493 52.697,12.758 52.590,12.890 C51.756,13.917 50.734,14.581 49.317,14.510 C48.370,14.463 47.618,14.114 47.277,13.216 C46.920,12.275 47.136,11.418 47.873,10.719 C48.658,9.979 49.668,9.661 50.709,9.440 C51.308,9.314 51.917,9.226 52.525,9.151 C52.751,9.123 52.855,9.083 52.851,8.838 C52.847,8.421 52.821,8.009 52.713,7.609 C52.525,6.926 51.981,6.511 51.230,6.445 C50.646,6.394 50.063,6.395 49.530,6.673 C49.231,6.830 49.099,7.033 49.390,7.338 C49.808,7.776 49.839,8.099 49.549,8.477 C49.303,8.796 48.746,8.938 48.339,8.786 C47.936,8.635 47.677,8.188 47.738,7.740 C47.822,7.115 48.204,6.687 48.745,6.384 C49.488,5.968 50.301,5.809 51.157,5.829 C51.616,5.832 52.077,5.858 52.525,5.971 C53.641,6.254 54.306,6.996 54.395,8.115 C54.509,9.547 54.589,10.980 54.690,12.412 C54.703,12.591 54.738,12.771 54.781,12.947 C54.951,13.648 55.138,13.799 55.860,13.802 C56.072,13.804 56.275,13.779 56.308,14.061 C56.342,14.348 56.079,14.321 55.930,14.364 ZM52.267,9.806 C52.131,9.812 51.991,9.812 51.856,9.831 C50.950,9.962 50.080,10.185 49.438,10.883 C48.932,11.431 48.853,12.364 49.259,12.903 C49.655,13.426 50.477,13.580 51.216,13.182 C52.327,12.584 52.945,11.664 52.931,10.405 C52.926,9.771 52.918,9.771 52.267,9.806 ZM45.361,14.290 C44.091,14.291 42.824,14.290 41.556,14.291 C41.396,14.291 41.249,14.297 41.248,14.070 C41.248,13.888 41.306,13.819 41.501,13.781 C42.133,13.661 42.390,13.218 42.461,12.649 C42.614,11.434 42.674,10.214 42.593,8.992 C42.538,8.178 42.312,7.419 41.455,7.093 C40.511,6.735 39.601,6.913 38.817,7.547 C38.169,8.070 37.798,8.758 37.773,9.570 C37.742,10.591 37.769,11.617 37.927,12.634 C38.018,13.215 38.324,13.616 38.916,13.766 C39.130,13.820 39.180,13.906 39.173,14.099 C39.165,14.349 38.983,14.289 38.846,14.290 C37.611,14.293 36.377,14.291 35.144,14.290 C34.979,14.290 34.798,14.331 34.783,14.066 C34.770,13.830 34.912,13.815 35.090,13.771 C35.615,13.644 35.869,13.273 35.983,12.790 C36.140,12.122 36.118,11.440 36.132,10.765 C36.176,8.336 36.246,5.906 36.094,3.477 C36.036,2.536 35.716,1.767 34.669,1.482 C34.549,1.450 34.436,1.403 34.449,1.254 C34.461,1.106 34.463,0.953 34.651,0.893 C35.539,0.601 36.418,0.280 37.315,0.030 C37.653,-0.062 37.849,0.130 37.840,0.536 C37.796,2.735 37.783,4.933 37.759,7.131 C37.759,7.295 37.759,7.457 37.759,7.778 C38.316,7.081 38.825,6.565 39.519,6.239 C40.518,5.772 41.534,5.747 42.555,6.107 C43.725,6.522 44.124,7.472 44.200,8.567 C44.272,9.639 44.275,10.716 44.301,11.789 C44.306,12.105 44.349,12.412 44.404,12.723 C44.507,13.281 44.805,13.675 45.396,13.778 C45.643,13.820 45.649,13.932 45.646,14.110 C45.643,14.319 45.491,14.290 45.361,14.290 ZM33.122,14.290 C32.334,14.291 31.546,14.285 30.759,14.296 C30.514,14.299 30.419,14.224 30.444,13.983 C30.483,13.639 30.492,13.293 30.522,12.844 C30.132,13.216 29.826,13.549 29.446,13.807 C27.743,14.959 25.400,14.776 24.069,13.358 C23.370,12.614 23.120,11.706 23.102,10.719 C23.072,9.124 23.520,7.714 24.846,6.677 C26.249,5.577 28.698,5.363 30.445,7.087 C30.392,5.610 30.556,4.241 30.324,2.883 C30.206,2.193 29.870,1.637 29.080,1.486 C28.888,1.449 28.791,1.375 28.782,1.163 C28.773,0.943 28.901,0.876 29.070,0.822 C29.860,0.569 30.650,0.310 31.446,0.068 C31.921,-0.077 32.106,0.073 32.105,0.538 C32.097,4.090 32.088,7.643 32.091,11.195 C32.091,11.657 32.131,12.120 32.186,12.577 C32.255,13.178 32.513,13.658 33.202,13.773 C33.392,13.805 33.518,13.838 33.494,14.070 C33.467,14.324 33.288,14.290 33.122,14.290 ZM30.444,10.429 C30.430,9.677 30.457,9.167 30.329,8.661 C30.029,7.472 29.074,6.640 27.869,6.542 C26.615,6.438 25.748,6.928 25.275,8.109 C24.727,9.471 24.754,10.854 25.390,12.190 C25.862,13.178 26.736,13.612 27.834,13.593 C28.884,13.575 29.633,13.064 30.111,12.165 C30.446,11.539 30.467,10.868 30.444,10.429 ZM21.197,14.291 C19.929,14.290 18.663,14.290 17.396,14.291 C17.226,14.291 17.095,14.279 17.095,14.061 C17.093,13.871 17.168,13.814 17.359,13.786 C17.958,13.701 18.208,13.295 18.303,12.765 C18.466,11.848 18.448,10.919 18.460,9.997 C18.489,7.866 18.543,5.734 18.414,3.603 C18.356,2.613 18.085,1.777 16.957,1.478 C16.828,1.444 16.749,1.372 16.763,1.229 C16.780,1.076 16.799,0.945 16.988,0.883 C17.845,0.607 18.692,0.303 19.552,0.040 C19.937,-0.079 20.149,0.111 20.149,0.506 C20.149,2.423 20.149,4.339 20.149,6.256 C20.063,8.140 20.062,10.025 20.155,11.909 C20.169,12.220 20.199,12.535 20.267,12.840 C20.381,13.345 20.668,13.722 21.240,13.785 C21.444,13.807 21.487,13.886 21.492,14.064 C21.497,14.285 21.365,14.293 21.197,14.291 ZM7.973,14.522 C5.846,14.631 3.901,14.187 2.271,12.795 C0.989,11.700 0.300,10.304 0.084,8.669 C-0.161,6.837 0.154,5.108 1.160,3.543 C2.429,1.565 4.346,0.532 6.702,0.204 C8.453,-0.040 10.150,0.135 11.749,0.879 C14.138,1.990 15.457,4.180 15.430,6.913 C15.437,11.131 12.274,14.306 7.973,14.522 ZM12.526,10.798 C13.537,8.678 13.486,6.486 12.780,4.283 C11.562,0.475 6.134,-0.149 3.779,2.460 C2.574,3.800 2.111,5.379 2.143,7.122 C2.159,8.695 2.375,9.758 2.950,10.859 C4.013,12.899 5.809,13.744 8.097,13.719 C10.232,13.695 11.668,12.596 12.526,10.798 Z" class="cls-1"/>
</svg>
