<svg xmlns="http://www.w3.org/2000/svg" xmlns:xlink="http://www.w3.org/1999/xlink" preserveAspectRatio="xMidYMid" width="38" height="38" viewBox="0 0 38 38">
  <defs>
    <style>
      .cls-1 {
        fill: #fff;
        fill-rule: evenodd;
      }
    </style>
  </defs>
  <path d="M35.625,38.000 L2.375,38.000 C1.062,38.000 -0.000,36.938 -0.000,35.625 L-0.000,31.469 C-0.000,29.372 2.375,28.209 2.375,28.209 C7.266,25.378 12.942,23.750 19.000,23.750 C25.058,23.750 30.734,25.378 35.625,28.209 C35.625,28.209 38.000,29.279 38.000,31.469 L38.000,35.625 C38.000,36.938 36.938,38.000 35.625,38.000 ZM19.000,26.125 C16.554,26.125 14.182,26.427 11.900,26.965 C13.790,28.651 16.269,29.688 19.000,29.688 C21.731,29.688 24.210,28.652 26.098,26.966 C23.817,26.427 21.446,26.125 19.000,26.125 ZM35.625,32.062 C35.625,30.875 35.065,30.636 34.780,30.467 C32.878,29.334 30.839,28.411 28.703,27.701 C26.313,30.368 22.863,32.062 19.000,32.062 C15.135,32.062 11.674,30.373 9.284,27.705 C7.171,28.406 5.153,29.319 3.270,30.437 C2.969,30.616 2.375,30.875 2.375,32.062 L2.375,34.438 C2.375,35.094 2.906,35.625 3.562,35.625 L34.437,35.625 C35.094,35.625 35.625,35.094 35.625,34.438 L35.625,32.062 ZM19.000,21.375 C14.409,21.375 10.687,17.654 10.687,13.062 L10.687,7.125 C10.687,3.190 13.878,0.000 17.812,0.000 L20.187,0.000 C24.122,0.000 27.313,3.190 27.313,7.125 L27.313,13.062 C27.313,17.654 23.591,21.375 19.000,21.375 ZM20.187,2.375 L17.812,2.375 C15.189,2.375 13.062,4.502 13.062,7.125 L24.938,7.125 C24.938,4.502 22.811,2.375 20.187,2.375 ZM24.938,9.500 L13.062,9.500 L13.062,13.062 C13.062,16.342 15.720,19.000 19.000,19.000 C22.280,19.000 24.938,16.342 24.938,13.062 L24.938,9.500 Z" class="cls-1"/>
</svg>
