<svg xmlns="http://www.w3.org/2000/svg" xmlns:xlink="http://www.w3.org/1999/xlink" preserveAspectRatio="xMidYMid" width="32" height="42" viewBox="0 0 32 42">
  <defs>
    <style>
      .cls-1 {
        fill: #fff;
        fill-rule: evenodd;
      }
    </style>
  </defs>
  <path d="M26.650,27.480 C26.652,27.509 26.667,27.533 26.667,27.563 L26.667,40.688 C26.667,41.180 26.388,41.630 25.944,41.855 C25.751,41.952 25.542,42.000 25.333,42.000 C25.060,42.000 24.789,41.918 24.559,41.755 L16.000,35.738 L7.441,41.755 C7.035,42.041 6.500,42.079 6.056,41.855 C5.612,41.630 5.333,41.180 5.333,40.688 L5.333,27.563 C5.333,27.533 5.349,27.509 5.350,27.480 C2.074,24.597 -0.000,20.417 -0.000,15.750 C-0.000,7.052 7.164,0.000 16.000,0.000 C24.836,0.000 32.000,7.052 32.000,15.750 C32.000,20.417 29.926,24.597 26.650,27.480 ZM8.000,38.137 L15.225,33.057 C15.689,32.732 16.311,32.732 16.775,33.057 L24.000,38.137 L24.000,29.375 C21.645,30.718 18.918,31.500 16.000,31.500 C13.082,31.500 10.355,30.718 8.000,29.375 L8.000,38.137 ZM16.000,2.625 C8.637,2.625 2.667,8.502 2.667,15.750 C2.667,22.998 8.637,28.875 16.000,28.875 C23.363,28.875 29.333,22.998 29.333,15.750 C29.333,8.502 23.363,2.625 16.000,2.625 ZM16.000,26.250 C10.119,26.250 5.333,21.540 5.333,15.750 C5.333,9.961 10.119,5.250 16.000,5.250 C21.881,5.250 26.667,9.961 26.667,15.750 C26.667,21.540 21.881,26.250 16.000,26.250 ZM16.000,7.875 C11.589,7.875 8.000,11.408 8.000,15.750 C8.000,20.093 11.589,23.625 16.000,23.625 C20.411,23.625 24.000,20.093 24.000,15.750 C24.000,11.408 20.411,7.875 16.000,7.875 Z" class="cls-1"/>
</svg>
