<svg xmlns="http://www.w3.org/2000/svg" xmlns:xlink="http://www.w3.org/1999/xlink" preserveAspectRatio="xMidYMid" width="42" height="44" viewBox="0 0 42 44">
  <defs>
    <style>
      .cls-1 {
        fill: #fff;
        fill-rule: evenodd;
      }
    </style>
  </defs>
  <path d="M40.600,23.375 L32.200,23.375 C31.426,23.375 30.800,22.760 30.800,22.000 C30.800,21.240 31.426,20.625 32.200,20.625 L40.600,20.625 C41.374,20.625 42.000,21.240 42.000,22.000 C42.000,22.760 41.374,23.375 40.600,23.375 ZM39.222,12.947 L31.329,15.767 C30.602,16.027 29.799,15.661 29.534,14.947 C29.270,14.232 29.645,13.444 30.371,13.183 L38.265,10.362 C38.992,10.103 39.795,10.470 40.059,11.184 C40.324,11.899 39.949,12.686 39.222,12.947 ZM31.328,28.232 L39.222,31.056 C39.949,31.315 40.324,32.102 40.059,32.816 C39.793,33.530 38.992,33.899 38.265,33.638 L30.371,30.815 C29.643,30.557 29.269,29.768 29.534,29.054 C29.799,28.339 30.600,27.973 31.328,28.232 ZM19.600,44.000 L16.800,44.000 L8.400,44.000 C8.400,44.000 8.397,44.000 8.395,44.000 C8.064,44.000 7.738,43.920 7.427,43.807 C7.364,43.785 7.301,43.766 7.241,43.737 C6.959,43.614 6.699,43.444 6.470,43.227 C6.423,43.184 6.390,43.135 6.346,43.090 C6.254,42.988 6.150,42.894 6.070,42.776 C5.821,42.410 0.000,35.750 0.000,22.000 C0.000,8.250 6.136,1.085 6.415,0.811 C6.675,0.554 6.986,0.352 7.331,0.213 C7.673,0.073 8.036,0.000 8.400,0.000 L19.600,0.000 C21.148,0.000 22.400,1.230 22.400,2.750 L22.400,13.750 C22.400,15.270 21.148,16.500 19.600,16.500 L14.000,16.500 L14.000,27.500 L19.600,27.500 C21.148,27.500 22.400,28.730 22.400,30.250 L22.400,41.250 C22.400,42.770 21.148,44.000 19.600,44.000 ZM16.800,13.750 L19.600,13.750 L19.600,2.750 L16.800,2.750 L16.800,13.750 ZM14.000,30.250 C12.454,30.250 11.200,29.019 11.200,27.500 L11.200,16.500 C11.200,14.982 12.454,13.750 14.000,13.750 L14.000,2.750 L8.410,2.750 C7.792,3.494 2.800,9.892 2.800,22.000 C2.800,33.192 6.936,39.362 8.203,40.986 C8.246,41.041 8.282,41.088 8.313,41.128 L8.385,41.204 C8.395,41.214 8.403,41.223 8.411,41.233 C8.429,41.239 8.446,41.245 8.464,41.250 L14.000,41.250 L14.000,30.250 ZM19.600,30.250 L16.800,30.250 L16.800,41.250 L19.600,41.250 L19.600,30.250 Z" class="cls-1"/>
</svg>
