<svg xmlns="http://www.w3.org/2000/svg" xmlns:xlink="http://www.w3.org/1999/xlink" preserveAspectRatio="xMidYMid" width="44.188" height="44.219" viewBox="0 0 44.188 44.219">
  <defs>
    <style>
      .cls-1 {
        fill: #fff;
        fill-rule: evenodd;
      }
    </style>
  </defs>
  <path d="M44.185,24.941 C44.308,29.274 41.132,31.045 38.466,32.990 C38.021,37.902 35.517,41.992 30.629,42.098 C30.579,42.099 30.528,42.099 30.478,42.099 C28.790,42.099 27.509,41.492 25.863,41.251 C24.125,42.019 23.081,43.365 21.310,43.897 C20.538,44.130 19.817,44.234 19.141,44.234 C15.373,44.234 13.032,40.974 11.356,38.391 C6.411,37.941 2.154,35.462 2.142,30.448 C2.138,28.780 2.753,27.536 2.989,25.893 C2.362,24.410 0.862,23.007 0.342,21.341 C-1.251,16.245 3.046,13.187 5.849,11.388 C6.185,6.230 9.054,2.164 14.108,2.164 C14.777,2.164 15.483,2.234 16.227,2.384 C16.816,2.502 17.595,2.918 18.230,2.918 C18.269,2.918 18.308,2.917 18.345,2.913 C19.549,2.810 21.601,0.781 22.897,0.373 C23.682,0.126 24.419,0.016 25.107,0.016 C28.950,0.016 31.355,3.452 32.959,5.773 C37.888,6.167 42.090,8.856 42.172,13.716 C42.201,15.436 41.573,16.815 41.324,18.482 C42.334,20.701 44.103,22.037 44.185,24.941 ZM39.277,18.244 C39.384,17.530 39.543,16.897 39.698,16.284 C39.919,15.405 40.109,14.646 40.096,13.835 C40.028,9.820 36.229,8.087 32.697,7.805 C32.138,7.759 31.629,7.466 31.310,7.005 C29.527,4.427 27.709,2.113 25.077,2.113 C24.561,2.113 24.014,2.203 23.450,2.381 C23.142,2.477 22.430,2.973 21.911,3.333 C20.771,4.127 19.695,4.875 18.545,4.973 C18.456,4.981 18.364,4.985 18.271,4.985 C17.566,4.985 16.924,4.759 16.409,4.577 C16.234,4.516 16.017,4.439 15.920,4.420 C15.320,4.300 14.739,4.239 14.192,4.239 C9.893,4.239 8.114,8.052 7.881,11.620 C7.843,12.212 7.527,12.750 7.028,13.069 C3.484,15.347 1.332,17.531 2.353,20.792 C2.551,21.434 3.033,22.120 3.542,22.849 C4.040,23.560 4.556,24.294 4.908,25.126 C5.040,25.439 5.085,25.783 5.036,26.119 C4.927,26.870 4.753,27.539 4.600,28.129 C4.394,28.920 4.215,29.604 4.217,30.356 C4.229,35.170 9.410,36.158 11.637,36.361 C12.207,36.413 12.723,36.723 13.034,37.205 C14.581,39.591 16.459,42.137 19.172,42.137 C19.678,42.137 20.219,42.052 20.780,41.883 C21.453,41.681 22.039,41.260 22.718,40.771 C23.378,40.298 24.125,39.762 25.069,39.345 C25.308,39.238 25.564,39.184 25.823,39.184 C25.914,39.184 26.004,39.191 26.093,39.205 C26.830,39.312 27.495,39.482 28.083,39.634 C28.903,39.843 29.610,40.024 30.390,40.024 L30.500,40.022 C35.268,39.919 36.240,34.871 36.436,32.707 C36.485,32.173 36.761,31.685 37.195,31.367 C37.462,31.174 37.732,30.981 38.005,30.787 C40.587,28.955 42.166,27.694 42.087,24.965 C42.048,23.566 41.487,22.708 40.710,21.517 C40.288,20.875 39.813,20.148 39.423,19.292 C39.275,18.965 39.223,18.601 39.277,18.244 ZM28.670,33.627 C26.171,33.627 24.138,31.595 24.138,29.097 C24.138,26.598 26.171,24.566 28.670,24.566 C31.168,24.566 33.200,26.598 33.200,29.097 C33.200,31.595 31.168,33.627 28.670,33.627 ZM28.670,26.566 C27.274,26.566 26.138,27.701 26.138,29.097 C26.138,30.492 27.274,31.627 28.670,31.627 C30.065,31.627 31.200,30.492 31.200,29.097 C31.200,27.701 30.065,26.566 28.670,26.566 ZM14.953,31.275 C14.758,31.470 14.502,31.568 14.246,31.568 C13.990,31.568 13.735,31.470 13.539,31.275 C13.149,30.884 13.149,30.251 13.539,29.861 L29.984,13.416 C30.374,13.026 31.007,13.026 31.398,13.416 C31.788,13.807 31.788,14.440 31.398,14.830 L14.953,31.275 ZM16.536,20.359 C14.037,20.359 12.005,18.327 12.005,15.829 C12.005,13.331 14.037,11.299 16.536,11.299 C19.034,11.299 21.066,13.331 21.066,15.829 C21.066,18.327 19.034,20.359 16.536,20.359 ZM16.536,13.299 C15.140,13.299 14.005,14.434 14.005,15.829 C14.005,17.225 15.140,18.359 16.536,18.359 C17.932,18.359 19.066,17.225 19.066,15.829 C19.066,14.434 17.932,13.299 16.536,13.299 Z" class="cls-1"/>
</svg>
