<svg xmlns="http://www.w3.org/2000/svg" xmlns:xlink="http://www.w3.org/1999/xlink" preserveAspectRatio="xMidYMid" width="32" height="34" viewBox="0 0 32 34">
  <defs>
    <style>
      .cls-1 {
        fill: #fff;
        fill-rule: evenodd;
      }
    </style>
  </defs>
  <path d="M7.000,23.000 L4.000,23.000 L4.000,25.000 L7.000,25.000 L7.000,23.000 ZM24.000,15.000 L24.000,6.000 L17.000,6.000 L17.000,-0.000 L14.933,-0.000 L15.000,6.000 L9.000,6.000 L9.000,11.000 L-0.000,11.000 L-0.000,34.000 L32.000,34.000 L32.000,15.000 L24.000,15.000 ZM9.000,32.000 L7.000,32.000 L7.000,27.000 L4.000,27.000 L4.000,32.000 L2.000,32.000 L2.000,13.000 L9.000,13.000 L9.000,32.000 ZM22.000,32.000 L19.000,32.000 L19.000,28.000 L14.000,28.000 L14.000,32.000 L11.000,32.000 L11.000,8.000 L22.000,8.000 L22.000,32.000 L22.000,32.000 ZM30.000,32.000 L28.000,32.000 L28.000,28.000 L26.000,28.000 L26.000,32.000 L24.000,32.000 L24.000,17.000 L30.000,17.000 L30.000,32.000 ZM7.000,15.000 L4.000,15.000 L4.000,17.000 L7.000,17.000 L7.000,15.000 ZM7.000,19.000 L4.000,19.000 L4.000,21.000 L7.000,21.000 L7.000,19.000 ZM19.000,11.000 L14.000,11.000 L14.000,13.000 L19.000,13.000 L19.000,11.000 L19.000,11.000 ZM19.000,15.000 L14.000,15.000 L14.000,17.000 L19.000,17.000 L19.000,15.000 L19.000,15.000 ZM28.000,23.000 L26.000,23.000 L26.000,25.000 L28.000,25.000 L28.000,23.000 ZM28.000,19.000 L26.000,19.000 L26.000,21.000 L28.000,21.000 L28.000,19.000 ZM19.000,23.000 L14.000,23.000 L14.000,25.000 L19.000,25.000 L19.000,23.000 L19.000,23.000 ZM19.000,19.000 L14.000,19.000 L14.000,21.000 L19.000,21.000 L19.000,19.000 L19.000,19.000 Z" class="cls-1"/>
</svg>
